#!OML:ASF F:\VICON\USERDATA\INSTALL\rory3\rory3.ASF
:FULLY-SPECIFIED
:DEGREES
136
root 1.17685 17.0842 -16.4888 15.7387 0.624847 0.736106
lowerback 19.6769 -0.274211 0.131696
upperback 2.57126 -0.0339613 3.25964
thorax -8.23105 0.0331853 3.47549
lowerneck -20.9203 -4.3243 -9.07239
upperneck 16.2654 -4.12706 4.67614
head 8.81663 -2.00646 2.51035
rclavicle 9.14409e-015 4.77083e-015
rhumerus -21.8624 -2.79913 -83.952
rradius 45.4786
rwrist 1.7763
rhand -9.89032 7.71342
rfingers 7.12502
rthumb 16.0893 -21.6387
lclavicle 9.14409e-015 4.77083e-015
lhumerus -22.2745 -3.43748 91.9718
lradius 37.9898
lwrist -4.86164
lhand -18.2312 22.6794
lfingers 7.12502
lthumb 8.04719 52.5062
rfemur -39.608 -0.0846535 18.4729
rtibia 45.53
rfoot -16.3013 -6.62247
rtoes -1.72417
lfemur -40.2372 2.79607 -21.3355
ltibia 44.1536
lfoot -16.8674 -3.4014
ltoes 1.38916
137
root 1.17977 17.08 -16.4868 15.8342 0.65292 0.699316
lowerback 19.6573 -0.308721 0.120755
upperback 2.61689 -0.0768016 3.32928
thorax -8.16786 0.0131206 3.5678
lowerneck -20.9829 -4.35105 -9.29021
upperneck 16.2423 -4.12562 4.84313
head 8.82825 -2.00043 2.6028
rclavicle 3.97569e-015 -5.56597e-015
rhumerus -21.6978 -2.74481 -83.8523
rradius 45.4256
rwrist 2.28791
rhand -8.94272 7.35872
rfingers 7.12502
rthumb 17.0016 -21.9172
lclavicle 3.97569e-015 -5.56597e-015
lhumerus -22.1991 -3.18104 91.8758
lradius 38.0243
lwrist -5.00855
lhand -18.6358 22.5329
lfingers 7.12502
lthumb 7.65665 52.3743
rfemur -39.756 -0.0318242 18.4967
rtibia 45.5958
rfoot -16.3618 -6.78393
rtoes -2.52558
lfemur -40.4268 2.76973 -21.287
ltibia 44.3371
lfoot -16.9285 -3.46076
ltoes 1.92184
138
root 1.18453 17.0753 -16.4796 15.8978 0.703768 0.577546
lowerback 19.5473 -0.379605 0.213062
upperback 2.68022 -0.148057 3.39983
thorax -8.03478 -0.0247472 3.60658
lowerneck -20.8928 -4.29969 -9.29348
upperneck 16.1688 -4.05749 4.82418
head 8.78193 -1.97117 2.60681
rclavicle 1.63003e-014 -1.82882e-014
rhumerus -21.6636 -2.58696 -83.8383
rradius 45.573
rwrist 2.64448
rhand -7.73686 6.88265
rfingers 7.12502
rthumb 18.162 -22.2894
lclavicle 1.63003e-014 -1.82882e-014
lhumerus -22.1346 -2.87978 91.7406
lradius 38.0711
lwrist -4.77498
lhand -18.3237 23.2363
lfingers 7.12502
lthumb 7.95796 53.0665
rfemur -39.8272 -0.0519264 18.6324
rtibia 45.667
rfoot -16.4497 -6.86728
rtoes -2.82056
lfemur -40.5571 2.74386 -21.1575
ltibia 44.4908
lfoot -16.9697 -3.43738
ltoes 1.89873
139
root 1.18898 17.0683 -16.472 15.8946 0.724746 0.475376
lowerback 19.4848 -0.384003 0.324578
upperback 2.78492 -0.132503 3.43079
thorax -7.88775 -0.0225953 3.56844
lowerneck -20.8813 -4.31465 -9.29232
upperneck 16.177 -4.08612 4.85479
head 8.78554 -1.9814 2.61334
rclavicle 2.78299e-015 -2.8625e-014
rhumerus -21.6823 -2.28174 -83.9308
rradius 45.3539
rwrist 0.868892
rhand -10.0836 8.54565
rfingers 7.12502
rthumb 15.9031 -20.8214
lclavicle 2.78299e-015 -2.8625e-014
lhumerus -22.0162 -2.76204 91.6411
lradius 38.1146
lwrist -4.38581
lhand -17.5738 24.2783
lfingers 7.12502
lthumb 8.68166 54.0798
rfemur -39.845 -0.0793806 18.7454
rtibia 45.7795
rfoot -16.4947 -6.82993
rtoes -2.54477
lfemur -40.5912 2.69649 -21.0531
ltibia 44.5964
lfoot -17.0478 -3.30381
ltoes 1.61258
140
root 1.19266 17.0598 -16.4697 15.9155 0.68953 0.526422
lowerback 19.544 -0.298994 0.301134
upperback 2.84964 -0.0324701 3.36688
thorax -7.85505 0.0242787 3.48609
lowerneck -21.0869 -4.37885 -9.18026
upperneck 16.3242 -4.20399 4.9124
head 8.87918 -2.02193 2.59752
rclavicle 3.97569e-016 -1.51076e-014
rhumerus -21.5973 -2.45767 -83.988
rradius 45.0732
rwrist 0.194835
rhand -11.749 9.40563
rfingers 7.12502
rthumb 14.2989 -20.082
lclavicle 3.97569e-016 -1.51076e-014
lhumerus -21.8293 -2.72964 91.5334
lradius 38.0105
lwrist -4.38626
lhand -17.3805 24.5198
lfingers 7.12502
lthumb 8.8682 54.3134
rfemur -39.9495 -0.038382 18.6622
rtibia 45.914
rfoot -16.5311 -6.84596
rtoes -2.48636
lfemur -40.6514 2.63617 -21.123
ltibia 44.6406
lfoot -17.0323 -3.18646
ltoes 1.35384
141
root 1.19875 17.0574 -16.4665 15.9449 0.679865 0.706879
lowerback 19.5803 -0.241473 0.191798
upperback 2.89354 0.0122674 3.28375
thorax -7.82922 0.0471155 3.44631
lowerneck -21.1637 -4.3557 -8.99473
upperneck 16.3323 -4.20141 4.81492
head 8.88829 -2.01855 2.53348
rclavicle 9.93923e-015 -2.3059e-014
rhumerus -21.6581 -2.63469 -83.9213
rradius 45.0624
rwrist 0.181137
rhand -12.9206 11.088
rfingers 7.12502
rthumb 13.1698 -18.4761
lclavicle 9.93923e-015 -2.3059e-014
lhumerus -21.7167 -2.66169 91.4271
lradius 37.8961
lwrist -4.6771
lhand -17.9296 23.5327
lfingers 7.12502
lthumb 8.33828 53.3481
rfemur -40.0352 -0.106751 18.4417
rtibia 46.0298
rfoot -16.6302 -6.81058
rtoes -2.40111
lfemur -40.6682 2.52925 -21.3369
ltibia 44.6443
lfoot -17.0242 -3.11232
ltoes 1.31358
142
root 1.2048 17.0577 -16.46 15.9873 0.747196 0.871872
lowerback 19.6767 -0.296268 0.0651535
upperback 2.79119 -0.0812377 3.27663
thorax -7.98735 0.00852957 3.53977
lowerneck -20.9551 -4.25614 -8.99868
upperneck 16.3501 -4.0753 4.77203
head 8.84819 -1.96743 2.53933
rclavicle 7.95139e-016 -1.03368e-014
rhumerus -21.9649 -2.81793 -83.7013
rradius 45.7986
rwrist 2.65977
rhand -13.0861 10.5994
rfingers 7.12502
rthumb 13.0102 -18.9749
lclavicle 7.95139e-016 -1.03368e-014
lhumerus -21.8618 -2.4386 91.3778
lradius 37.7704
lwrist -4.82938
lhand -18.3092 23.4929
lfingers 7.12502
lthumb 7.97195 53.3225
rfemur -40.0832 -0.266363 18.2677
rtibia 46.1234
rfoot -16.7385 -6.82199
rtoes -2.38968
lfemur -40.6767 2.40824 -21.5331
ltibia 44.6306
lfoot -17.0752 -3.03076
ltoes 0.75771
143
root 1.20884 17.0575 -16.4523 16.0114 0.921127 0.852979
lowerback 19.7771 -0.392918 0.12674
upperback 2.6843 -0.184457 3.32821
thorax -8.15247 -0.039013 3.59265
lowerneck -20.7706 -4.19882 -9.03272
upperneck 16.4521 -4.0075 4.77517
head 8.84727 -1.941 2.55787
rclavicle -1.98785e-015 3.97569e-015
rhumerus -22.0594 -2.78245 -83.6291
rradius 45.8571
rwrist 3.60249
rhand -13.5248 10.5713
rfingers 7.12502
rthumb 12.5873 -19.0295
lclavicle -1.98785e-015 3.97569e-015
lhumerus -22.1293 -2.37438 91.3343
lradius 37.8331
lwrist -4.67551
lhand -18.1152 24.0119
lfingers 7.12502
lthumb 8.15918 53.8344
rfemur -40.0721 -0.45926 18.3365
rtibia 46.1673
rfoot -16.7562 -6.81881
rtoes -2.25161
lfemur -40.6983 2.25447 -21.4931
ltibia 44.6292
lfoot -17.1379 -2.99835
ltoes 0.667675
